<?xml version="1.0" standalone="no"?>
<!DOCTYPE svg PUBLIC "-//W3C//DTD SVG 20010904//EN"
 "http://www.w3.org/TR/2001/REC-SVG-20010904/DTD/svg10.dtd">
<svg version="1.0" xmlns="http://www.w3.org/2000/svg"
 width="300.000000pt" height="300.000000pt" viewBox="0 0 300.000000 300.000000"
 preserveAspectRatio="xMidYMid meet">
<metadata>
Created by potrace 1.11, written by Peter Selinger 2001-2013
</metadata>
<g transform="translate(0.000000,300.000000) scale(0.100000,-0.100000)"
fill="#000000" stroke="none">
<path d="M410 2455 l0 -115 40 0 40 0 0 -162 c0 -90 -4 -168 -8 -175 -4 -7
-32 -17 -62 -24 -90 -19 -158 -57 -240 -135 -119 -114 -160 -210 -160 -374 0
-152 43 -255 150 -362 78 -78 180 -133 266 -144 l54 -6 0 -100 c0 -66 -5 -108
-14 -127 -15 -28 -53 -51 -84 -51 -17 0 -21 -14 -80 -242 -7 -28 138 -25 213
3 79 29 164 111 200 191 27 59 29 74 33 220 3 121 7 158 18 162 12 4 14 -29
14 -197 0 -231 6 -254 80 -326 153 -148 415 -81 475 121 11 37 15 97 15 205 0
129 2 153 15 153 13 0 15 -37 15 -275 l0 -275 120 0 120 0 0 156 0 157 50 -67
c28 -36 54 -66 59 -66 4 0 30 28 57 62 l49 63 3 -153 3 -152 119 0 120 0 0
275 c0 268 0 275 20 275 20 0 20 -7 20 -275 l0 -275 120 0 120 0 0 64 0 64 46
7 c107 16 177 57 225 133 49 77 58 175 24 265 -7 16 4 17 137 17 128 0 147 2
161 18 30 33 20 69 -48 173 -36 55 -65 103 -65 106 0 4 10 27 23 52 19 39 22
62 22 151 0 121 -9 145 -85 221 -84 84 -112 93 -288 97 -122 3 -152 7 -152 18
0 9 11 14 33 14 63 0 133 29 185 75 69 62 95 119 96 209 1 123 -60 210 -180
257 -50 19 -82 23 -216 27 l-158 4 0 -301 c0 -294 0 -301 -20 -301 -20 0 -20
7 -20 300 l0 300 -117 -1 -118 0 -58 -75 -58 -75 -57 75 -57 75 -117 1 -118 0
-1 -367 c0 -203 -4 -377 -8 -388 -6 -15 -13 -5 -31 50 -12 39 -28 76 -35 84
-11 11 -8 23 14 64 26 51 26 53 29 304 l4 253 -121 0 -121 0 0 -223 c0 -204
-2 -225 -18 -240 -10 -10 -25 -17 -33 -17 -36 0 -39 20 -39 252 l0 228 -120 0
-120 0 0 -231 c0 -207 -2 -230 -16 -225 -9 3 -16 6 -17 6 -1 0 0 142 1 315 l4
315 -176 0 -176 0 0 -115z m2024 -321 c30 -30 10 -74 -34 -74 -29 0 -30 2 -30
45 0 41 2 45 24 45 14 0 32 -7 40 -16z m-749 -209 c27 -36 52 -65 55 -65 3 0
21 21 40 46 77 100 70 102 70 -13 l0 -103 -110 0 -110 0 0 100 c0 55 1 100 3
100 2 0 25 -29 52 -65z m-1030 -7 c98 -25 214 -109 268 -194 169 -270 29 -619
-280 -699 -256 -67 -521 111 -565 381 -28 166 54 354 193 446 122 79 247 101
384 66z m668 -338 l50 -155 51 155 52 155 117 3 c90 2 117 0 117 -10 0 -7 -45
-166 -98 -353 l-98 -340 -140 -3 -140 -3 -97 343 c-54 189 -97 349 -97 356 0
10 27 12 116 10 l116 -3 51 -155z m1369 127 c95 -47 158 -142 158 -237 0 -52
-24 -125 -53 -163 l-25 -33 69 -104 c39 -58 74 -113 80 -122 9 -17 1 -18 -118
-18 l-128 0 -65 88 -65 87 -3 -87 -3 -88 -119 0 -120 0 0 348 c0 192 3 352 8
356 4 4 79 6 167 4 152 -3 163 -4 217 -31z m-422 -87 l0 -110 -140 0 c-133 0
-140 -1 -140 -20 0 -19 7 -20 120 -20 l121 0 -3 -92 -3 -93 -117 -3 c-96 -2
-118 -5 -118 -17 0 -13 24 -15 140 -15 l140 0 0 -110 0 -110 -260 0 -260 0 0
350 0 350 260 0 260 0 0 -110z m-1138 -488 c-9 -3 -12 -63 -12 -226 0 -245 -3
-260 -55 -254 l-30 3 -5 235 -5 235 -48 5 -47 5 35 49 c43 61 73 138 82 213
l6 57 46 -159 c31 -111 41 -160 33 -163z m558 97 l0 -192 -31 39 c-16 22 -36
44 -43 49 -10 8 -5 39 27 153 23 78 42 142 44 142 2 0 3 -86 3 -191z m740
-359 c24 -24 24 -29 4 -58 -8 -12 -26 -22 -40 -22 -22 0 -24 4 -24 50 0 43 3
50 20 50 11 0 29 -9 40 -20z"/>
<path d="M452 1639 c-122 -61 -136 -232 -26 -316 29 -21 50 -28 99 -31 78 -5
128 19 169 81 24 37 27 50 24 108 -3 54 -9 73 -31 103 -57 73 -152 96 -235 55z
m150 -55 c61 -32 81 -100 48 -168 -17 -36 -30 -48 -65 -62 -72 -27 -134 -1
-166 70 -22 52 -12 105 28 142 47 43 94 49 155 18z"/>
<path d="M2540 1470 c0 -46 2 -50 23 -50 26 0 57 28 57 52 0 21 -33 48 -58 48
-20 0 -22 -5 -22 -50z"/>
</g>
</svg>
